# xmcd
#
# Track frame offsets:
#	150
#	13307
#	27918
#	43754
#	57992
#	70054
#	83844
#	99580
#	112387
#	128010
#	141367
#	155173
#
# Disc length: 2242 seconds
#
# Revision: 1
# Processed by: cddbd v1.5.2PL0 Copyright (c) Steve Scherf et al.
# Submitted via: audiograbber 1.83.01
#
DISCID=ae08c00c
DTITLE=Die Ladiner - Grüße aus Südtirol - CD 03
DYEAR=1900
DGENRE=Folk
TTITLE0=Gold'ne Stimmen aus den Bergen
TTITLE1=Ciao Roncadizza
TTITLE2=Die Nacht am Himalaya
TTITLE3=Ja so schön ist doch nur Südtirol
TTITLE4=Die kleine Sonja
TTITLE5=L Suredl
TTITLE6=Grüße von Berg zu Berg
TTITLE7=Daniel, wirst du je die Berge seh'n
TTITLE8=Verlorene KIndheit
TTITLE9=Na seira sareina
TTITLE10=Ich war ein Hirtenjunge
TTITLE11=Wohl ist die Welt so groß und weit
EXTD=
EXTT0=
EXTT1=
EXTT2=
EXTT3=
EXTT4=
EXTT5=
EXTT6=
EXTT7=
EXTT8=
EXTT9=
EXTT10=
EXTT11=
PLAYORDER=
